<!DOCTYPE svg PUBLIC "-//W3C//DTD SVG 1.1//EN" "http://www.w3.org/Graphics/SVG/1.1/DTD/svg11.dtd">
<!-- Uploaded to: SVG Repo, www.svgrepo.com, Transformed by: SVG Repo Mixer Tools -->
<svg width="151px" height="151px" viewBox="-19.2 -19.2 230.40 230.40" xmlns="http://www.w3.org/2000/svg" id="Layer_1" data-name="Layer 1" fill="#2cc34b" stroke="#2cc34b" transform="matrix(-1, 0, 0, 1, 0, 0)">
<g id="SVGRepo_bgCarrier" stroke-width="0">
<rect x="-19.2" y="-19.2" width="230.40" height="230.40" rx="16.128" fill="#a5ec7e" strokewidth="0"/>
</g>
<g id="SVGRepo_tracerCarrier" stroke-linecap="round" stroke-linejoin="round" stroke="#257e37" stroke-width="14.207999999999998">
<defs>
<style>.cls-3{fill:none;stroke:#2bff00;stroke-linejoin:round;stroke-width:6.912000000000001;stroke-linecap:round}</style>
</defs>
<path d="M0 0h192v192H0z" style="fill:none"/>
<path d="M158.63 140V22H33.37v118H90v30l20-30h48.63z" style="stroke:#2bff00;stroke-linejoin:round;stroke-width:6.912000000000001;fill:none"/>
<path d="M65 92a31.16 31.16 0 0 0 62 0Z" class="cls-3"/>
<ellipse cx="118" cy="60" rx="10" ry="12.73"/>
<path d="M71 64a8.07 8.07 0 0 1 16 0 17 17 0 0 0-16 0Z" class="cls-3"/>
</g>
<g id="SVGRepo_iconCarrier">
<defs>
<style>.cls-3{fill:none;stroke:#2bff00;stroke-linejoin:round;stroke-width:9.024;stroke-linecap:round}</style>
</defs>
<path d="M0 0h192v192H0z" style="fill:none"/>
<path d="M158.63 140V22H33.37v118H90v30l20-30h48.63z" style="stroke:#2bff00;stroke-linejoin:round;stroke-width:9.024;fill:none"/>
<path d="M65 92a31.16 31.16 0 0 0 62 0Z" class="cls-3"/>
<ellipse cx="118" cy="60" rx="10" ry="12.73"/>
<path d="M71 64a8.07 8.07 0 0 1 16 0 17 17 0 0 0-16 0Z" class="cls-3"/>
</g>
</svg>